<?xml version="1.0" encoding="UTF-8" standalone="no"?>
<svg
   xmlns:dc="http://purl.org/dc/elements/1.1/"
   xmlns:cc="http://creativecommons.org/ns#"
   xmlns:rdf="http://www.w3.org/1999/02/22-rdf-syntax-ns#"
   xmlns:svg="http://www.w3.org/2000/svg"
   xmlns="http://www.w3.org/2000/svg"
   xmlns:sodipodi="http://sodipodi.sourceforge.net/DTD/sodipodi-0.dtd"
   xmlns:inkscape="http://www.inkscape.org/namespaces/inkscape"
   id="svg8"
   version="1.1"
   viewBox="0 0 85.788956 69.933632"
   height="69.933632mm"
   width="85.788956mm"
   sodipodi:docname="Logo.svg"
   inkscape:version="0.92.4 5da689c313, 2019-01-14">
  <sodipodi:namedview
     pagecolor="#ffffff"
     bordercolor="#666666"
     borderopacity="1"
     objecttolerance="10"
     gridtolerance="10"
     guidetolerance="10"
     inkscape:pageopacity="0"
     inkscape:pageshadow="2"
     inkscape:window-width="1280"
     inkscape:window-height="996"
     id="namedview121"
     showgrid="false"
     fit-margin-top="0"
     fit-margin-left="0"
     fit-margin-right="0"
     fit-margin-bottom="0"
     inkscape:zoom="0.84096521"
     inkscape:cx="201.90867"
     inkscape:cy="86.919879"
     inkscape:window-x="0"
     inkscape:window-y="0"
     inkscape:window-maximized="1"
     inkscape:current-layer="svg8" />
  <defs
     id="defs2" />
  <metadata
     id="metadata5">
    <rdf:RDF>
      <cc:Work
         rdf:about="">
        <dc:format>image/svg+xml</dc:format>
        <dc:type
           rdf:resource="http://purl.org/dc/dcmitype/StillImage" />
        <dc:title></dc:title>
      </cc:Work>
    </rdf:RDF>
  </metadata>
  <g
     id="g143"
     transform="matrix(2.56,0,0,2.56,-188.91124,-191.2032)">
    <g
       id="layer1">
      <g
         transform="matrix(1.1700893,0,0,1.2078902,11.27807,-179.18124)"
         id="layer1-7">
        <g
           id="g463">
          <g
             id="g28">
            <path
               id="path336"
               d="m 67.743823,210.17638 a 4.999954,4.999954 0 0 0 -4.999922,4.99992 4.999954,4.999954 0 0 0 4.999922,4.99992 4.999954,4.999954 0 0 0 5.000078,-4.99992 4.999954,4.999954 0 0 0 -5.000078,-4.99992 z m -3.524581,1.47534 h 7.049319 v 7.04916 h -7.049319 z"
               style="fill:#0761b2;stroke-width:0.01795068"
               inkscape:connector-curvature="0" />
            <path
               style="fill:#1192a0;stroke-width:0.0777099"
               d="m 64.219307,211.65172 h 7.04918 v 7.04918 h -7.04918 z"
               id="rect370"
               inkscape:connector-curvature="0" />
            <path
               d="m 65.503569,216.49708 q -0.19359,0 -0.332538,-0.0578 -0.137386,-0.0578 -0.218568,-0.17017 -0.08118,-0.11241 -0.118653,-0.26229 -0.03747,-0.14987 -0.03747,-0.34971 v -0.98044 q 0,-0.40435 0.163926,-0.61199 0.165489,-0.2092 0.543301,-0.2092 0.376251,0 0.541738,0.21076 0.165489,0.20921 0.165489,0.61043 v 0.982 q 0,0.40436 -0.16705,0.62136 -0.165487,0.21701 -0.540177,0.21701 z m -0.176417,-0.31536 q 0.07025,0.0328 0.176417,0.0328 0.106161,0 0.174855,-0.0328 0.07025,-0.0328 0.106162,-0.0999 0.03591,-0.0671 0.0484,-0.14675 0.01405,-0.0812 0.01405,-0.19984 v -1.13343 q 0,-0.11709 -0.01405,-0.19515 -0.01249,-0.0781 -0.0484,-0.14363 -0.03591,-0.0656 -0.106162,-0.0952 -0.06869,-0.0312 -0.174855,-0.0312 -0.106163,0 -0.176417,0.0312 -0.06869,0.0297 -0.104601,0.0952 -0.03591,0.0656 -0.04996,0.14363 -0.01249,0.0781 -0.01249,0.19515 v 1.13343 q 0,0.11866 0.01249,0.19984 0.01405,0.0796 0.04996,0.14675 0.03591,0.0671 0.104601,0.0999 z"
               style="font-style:normal;font-variant:normal;font-weight:normal;font-stretch:normal;font-size:40px;line-height:1.25;font-family:'Oswald Regular';-inkscape-font-specification:'Oswald Regular, ';letter-spacing:0px;word-spacing:0px;fill:#202020;fill-opacity:1;stroke:none;stroke-width:0.07993381"
               id="path444"
               inkscape:connector-curvature="0" />
            <path
               d="m 66.928951,215.00457 h 0.163926 q 0.237304,0 0.326293,-0.0843 0.08899,-0.0843 0.08899,-0.32317 0,-0.0984 -0.0047,-0.1608 -0.0047,-0.064 -0.02186,-0.12021 -0.01561,-0.0562 -0.04215,-0.0859 -0.02654,-0.0312 -0.07494,-0.0531 -0.04684,-0.0219 -0.110846,-0.0297 -0.06245,-0.008 -0.15612,-0.008 h -0.168611 z m -0.360639,1.46441 v -2.58848 h 0.641656 q 0.337221,0 0.488658,0.18266 0.151437,0.1811 0.151437,0.53237 0,0.31537 -0.163926,0.49178 -0.162366,0.17642 -0.474607,0.17642 h -0.282579 v 1.20525 z"
               style="font-style:normal;font-variant:normal;font-weight:normal;font-stretch:normal;font-size:40px;line-height:1.25;font-family:'Oswald Regular';-inkscape-font-specification:'Oswald Regular, ';letter-spacing:0px;word-spacing:0px;fill:#202020;fill-opacity:1;stroke:none;stroke-width:0.07993381"
               id="path446"
               inkscape:connector-curvature="0" />
            <path
               d="m 68.10454,216.46898 v -2.58848 h 1.002294 v 0.26697 h -0.641655 v 0.85554 h 0.521443 v 0.2576 h -0.521443 v 0.94921 h 0.649462 v 0.25916 z"
               style="font-style:normal;font-variant:normal;font-weight:normal;font-stretch:normal;font-size:40px;line-height:1.25;font-family:'Oswald Regular';-inkscape-font-specification:'Oswald Regular, ';letter-spacing:0px;word-spacing:0px;fill:#202020;fill-opacity:1;stroke:none;stroke-width:0.07993381"
               id="path448"
               inkscape:connector-curvature="0" />
            <path
               d="m 69.409709,216.46898 v -2.58848 h 0.245109 l 0.735329,1.71889 v -1.71889 h 0.301313 v 2.58848 h -0.231058 l -0.746257,-1.76885 v 1.76885 z"
               style="font-style:normal;font-variant:normal;font-weight:normal;font-stretch:normal;font-size:40px;line-height:1.25;font-family:'Oswald Regular';-inkscape-font-specification:'Oswald Regular, ';letter-spacing:0px;word-spacing:0px;fill:#202020;fill-opacity:1;stroke:none;stroke-width:0.07993381"
               id="path450"
               inkscape:connector-curvature="0" />
          </g>
        </g>
      </g>
      <path
         style="fill:none;fill-opacity:1;stroke:#848484;stroke-width:1.42488194;stroke-miterlimit:4;stroke-dasharray:none;stroke-dashoffset:20.900177;stroke-opacity:1"
         d="m 285.16406,299.71289 c -1.51146,0 -2.84414,0.7484 -3.74609,1.9082 -1.06529,0.98199 -1.75391,2.43444 -1.75391,4.08008 v 37.94141 c 0,0.27913 -0.0374,-0.2674 0,0 -0.0671,0.36427 -0.043,1.55713 -0.043,1.9414 v 33.1211 c 0,3.38947 2.72772,6.11914 6.11719,6.11914 H 398.7168 c 3.38947,0 6.11914,-2.72967 6.11914,-6.11914 v -33.1211 c 0,-0.3171 0.0126,-0.71513 -0.0335,-1.01897 0.057,-0.32762 0.0452,-0.5762 0.0452,-0.92243 v -37.94141 c 0,-1.64564 -0.68861,-3.09809 -1.75391,-4.08008 -0.90195,-1.1598 -2.23462,-1.9082 -3.74609,-1.9082 h -33.6836 c 0.42968,1.77674 0.65067,3.60039 0.65821,5.43164 -0.008,1.7829 -0.21852,3.55868 -0.62696,5.29102 h 29.30274 V 339.4668 H 289.51367 v -29.03125 h 29.30274 c -0.40844,-1.73234 -0.61887,-3.50812 -0.62696,-5.29102 0.008,-1.83125 0.22853,-3.6549 0.65821,-5.43164 z"
         id="rect28"
         transform="scale(0.26458333)"
         inkscape:connector-curvature="0" />
      <g
         aria-label="LIBS"
         transform="scale(1.1014361,0.90790559)"
         style="font-style:normal;font-weight:normal;font-size:7.8726573px;line-height:1.25;font-family:sans-serif;letter-spacing:0px;word-spacing:0px;fill:#000000;fill-opacity:1;stroke:none;stroke-width:0.19681643"
         id="text4623">
        <path
           d="m 74.331618,100.28313 h 0.776503 v 5.0857 h 2.794639 v 0.65349 h -3.571142 z"
           style="stroke-width:0.19681643"
           id="path4625"
           inkscape:connector-curvature="0" />
        <path
           d="m 78.717703,100.28313 h 0.776503 v 5.73919 h -0.776503 z"
           style="stroke-width:0.19681643"
           id="path4627"
           inkscape:connector-curvature="0" />
        <path
           d="m 81.816024,103.2815 v 2.10271 h 1.245479 q 0.626584,0 0.926421,-0.25755 0.303682,-0.2614 0.303682,-0.79573 0,-0.53817 -0.303682,-0.79188 -0.299837,-0.25755 -0.926421,-0.25755 z m 0,-2.36026 v 1.72983 h 1.149378 q 0.568922,0 0.845695,-0.21142 0.280617,-0.21527 0.280617,-0.65349 0,-0.43438 -0.280617,-0.64965 -0.276773,-0.21527 -0.845695,-0.21527 z m -0.776502,-0.63811 h 1.983541 q 0.88798,0 1.368489,0.36903 0.480509,0.36903 0.480509,1.04943 0,0.52664 -0.246021,0.83801 -0.24602,0.31137 -0.722685,0.38825 0.572767,0.12301 0.88798,0.5151 0.319058,0.38825 0.319058,0.97255 0,0.76882 -0.522793,1.18782 -0.522794,0.419 -1.487656,0.419 h -2.060422 z"
           style="stroke-width:0.19681643"
           id="path4629"
           inkscape:connector-curvature="0" />
        <path
           d="m 89.742499,100.47149 v 0.75728 q -0.442068,-0.21143 -0.834164,-0.31522 -0.392095,-0.10379 -0.757282,-0.10379 -0.634271,0 -0.980238,0.24602 -0.342122,0.24602 -0.342122,0.69962 0,0.38057 0.2268,0.57662 0.230644,0.1922 0.86876,0.31137 l 0.468977,0.0961 q 0.86876,0.16529 1.280075,0.5843 0.41516,0.41516 0.41516,1.11478 0,0.83416 -0.561234,1.2647 -0.55739,0.43053 -1.637574,0.43053 -0.407472,0 -0.86876,-0.0923 -0.457445,-0.0922 -0.949486,-0.27293 v -0.79956 q 0.472821,0.26524 0.926421,0.39978 0.4536,0.13454 0.891825,0.13454 0.665024,0 1.026367,-0.26139 0.361342,-0.2614 0.361342,-0.74575 0,-0.42285 -0.261397,-0.66118 -0.257552,-0.23834 -0.849539,-0.3575 l -0.472821,-0.0923 q -0.86876,-0.17298 -1.257011,-0.54201 -0.388251,-0.36903 -0.388251,-1.02637 0,-0.76113 0.534325,-1.19935 0.53817,-0.43822 1.479968,-0.43822 0.403627,0 0.822631,0.073 0.419004,0.073 0.857228,0.21912 z"
           style="stroke-width:0.19681643"
           id="path4631"
           inkscape:connector-curvature="0" />
      </g>
      <text
         xml:space="preserve"
         style="font-style:normal;font-variant:normal;font-weight:normal;font-stretch:normal;font-size:3.52777767px;line-height:1.25;font-family:sans-serif;-inkscape-font-specification:'sans-serif, Normal';font-variant-ligatures:normal;font-variant-caps:normal;font-variant-numeric:normal;font-feature-settings:normal;text-align:start;letter-spacing:0px;word-spacing:0px;writing-mode:lr-tb;text-anchor:start;fill:#000000;fill-opacity:1;stroke:none;stroke-width:0.26458332"
         x="81.918106"
         y="99.688271"
         id="text4636"><tspan
           id="tspan4634"
           x="81.918106"
           y="109.05204"
           style="font-style:normal;font-variant:normal;font-weight:normal;font-stretch:normal;font-size:3.52777767px;font-family:sans-serif;-inkscape-font-specification:'sans-serif, Normal';font-variant-ligatures:normal;font-variant-caps:normal;font-variant-numeric:normal;font-feature-settings:normal;text-align:start;writing-mode:lr-tb;text-anchor:start;stroke-width:0.26458332" /></text>
      <text
         xml:space="preserve"
         style="font-style:normal;font-variant:normal;font-weight:normal;font-stretch:normal;font-size:0.70555556px;line-height:1.25;font-family:sans-serif;-inkscape-font-specification:'sans-serif, Normal';font-variant-ligatures:normal;font-variant-caps:normal;font-variant-numeric:normal;font-feature-settings:normal;text-align:center;letter-spacing:0px;word-spacing:0px;writing-mode:lr-tb;text-anchor:middle;fill:#000000;fill-opacity:1;stroke:none;stroke-width:0.23421097"
         x="102.26067"
         y="88.28756"
         id="text4640"
         transform="scale(0.88520682,1.1296795)"><tspan
           id="tspan4638"
           x="102.26067"
           y="88.28756"
           style="font-style:normal;font-variant:normal;font-weight:normal;font-stretch:normal;font-size:0.70555556px;font-family:sans-serif;-inkscape-font-specification:'sans-serif, Normal';font-variant-ligatures:normal;font-variant-caps:normal;font-variant-numeric:normal;font-feature-settings:normal;text-align:center;writing-mode:lr-tb;text-anchor:middle;stroke-width:0.23421097">BinRes, DataBase, File, MArgs, OCL, StrTime, Types, Utils</tspan></text>
    </g>
  </g>
</svg>
